M48
METRIC,TZ
T1C0.350
T2C0.400
T3C0.635
T4C1.000
T5C1.270
T6C2.200
%
G90
G05
T1
X99.314Y-72.517
X101.6Y-72.517
X101.6Y-89.916
X104.013Y-88.011
X104.267Y-91.821
X105.156Y-117.221
X105.613Y-90.983
X106.045Y-133.985
X106.299Y-102.87
X106.553Y-72.771
X106.883Y-134.417
X107.315Y-99.06
X108.331Y-87.63
X108.61Y-134.163
X109.271Y-95.961
X109.271Y-100.127
X109.601Y-72.517
X109.83Y-91.745
X109.931Y-134.163
X110.363Y-90.297
X110.426Y-109.791
X110.541Y-105.969
X110.592Y-97.942
X110.998Y-103.124
X111.303Y-117.246
X111.316Y-122.364
X111.506Y-97.155
X111.633Y-105.029
X111.76Y-93.218
X111.912Y-116.586
X111.912Y-134.264
X111.95Y-121.793
X112.116Y-105.766
X112.395Y-73.914
X112.395Y-95.377
X112.585Y-121.031
X112.624Y-115.976
X112.649Y-78.613
X112.776Y-83.058
X113.03Y-81.915
X113.157Y-91.948
X113.284Y-120.396
X113.335Y-115.316
X113.386Y-111.049
X113.919Y-128.143
X114.109Y-127.254
X114.3Y-119.444
X114.554Y-84.074
X114.859Y-112.878
X115.164Y-99.974
X115.189Y-93.726
X115.316Y-83.058
X115.379Y-120.523
X115.519Y-110.642
X115.57Y-108.712
X115.57Y-119.736
X115.57Y-128.27
X115.621Y-107.747
X115.621Y-131.216
X115.672Y-109.677
X115.697Y-89.408
X115.951Y-94.361
X115.951Y-100.52
X116.078Y-84.328
X116.078Y-121.107
X116.395Y-128.27
X116.586Y-131.47
X116.688Y-99.365
X116.713Y-121.73
X116.942Y-120.802
X116.967Y-94.615
X117.157Y-98.552
X117.157Y-128.016
X117.411Y-122.364
X117.653Y-131.623
X117.792Y-97.917
X117.792Y-126.555
X117.805Y-119.583
X117.805Y-120.447
X117.856Y-127.572
X118.161Y-125.273
X118.427Y-97.409
X118.669Y-124.308
X118.77Y-131.674
X118.999Y-81.407
X118.999Y-101.727
X119.024Y-120.701
X119.126Y-123.546
X119.634Y-119.99
X119.685Y-131.318
X119.697Y-102.425
X119.736Y-122.834
X120.193Y-122.022
X120.269Y-81.534
X120.396Y-85.979
X120.498Y-120.193
X120.523Y-106.426
X120.599Y-121.209
X120.701Y-131.521
X121.209Y-119.532
X121.31Y-120.599
X121.31Y-132.182
X121.412Y-82.169
X121.412Y-110.49
X121.514Y-114.452
X121.666Y-92.329
X121.717Y-132.994
X121.971Y-119.99
X122.123Y-119.177
X122.682Y-130.556
X122.745Y-128.333
X122.809Y-127.
X123.444Y-106.87
X123.495Y-110.998
X123.495Y-116.992
X123.634Y-128.333
X123.761Y-125.73
X123.888Y-105.474
X124.308Y-117.196
X124.333Y-93.345
X124.46Y-119.507
X124.714Y-81.661
X125.07Y-132.944
X125.095Y-114.617
X125.349Y-82.931
X125.349Y-128.27
X125.527Y-108.001
X125.539Y-117.221
X125.73Y-110.617
X125.882Y-92.507
X125.933Y-119.38
X126.238Y-109.88
X126.289Y-120.244
X126.848Y-92.456
X126.873Y-119.316
X126.936Y-113.792
X126.949Y-108.814
X127.254Y-131.445
X127.508Y-82.677
X127.508Y-110.846
X127.762Y-89.154
X127.762Y-94.234
X127.825Y-127.381
X127.914Y-92.761
X128.219Y-108.153
X128.524Y-119.507
X128.524Y-130.683
X128.651Y-127.508
X128.778Y-92.456
X129.235Y-110.846
X129.286Y-72.771
X129.54Y-93.662
X129.54Y-116.522
X129.54Y-127.508
X129.667Y-92.392
X129.731Y-114.744
X129.997Y-109.271
X130.175Y-97.155
X130.302Y-98.171
X130.683Y-116.649
X130.937Y-119.507
X131.Y-95.948
X131.064Y-132.842
X131.127Y-126.746
X131.445Y-96.837
X131.762Y-100.393
X131.762Y-123.571
X131.889Y-115.506
X131.953Y-103.441
X132.017Y-116.459
X132.143Y-104.267
X132.334Y-134.01
X132.524Y-125.857
X132.994Y-127.914
X133.096Y-105.283
X133.223Y-119.507
X133.401Y-121.412
X133.477Y-99.695
X133.604Y-113.665
X135.001Y-117.094
X135.001Y-130.556
X135.23Y-112.573
X135.636Y-114.3
X135.738Y-134.671
X136.271Y-122.174
X136.525Y-116.967
X136.525Y-128.333
X136.906Y-92.964
X136.969Y-104.331
X137.096Y-127.063
X137.224Y-105.219
X137.287Y-107.251
X137.312Y-94.844
X137.858Y-108.521
X137.922Y-127.698
X138.303Y-93.98
X138.493Y-107.95
X138.811Y-100.711
X138.938Y-98.806
X139.141Y-110.642
X139.7Y-134.518
X139.827Y-102.616
X139.852Y-130.15
X140.005Y-110.236
X140.208Y-97.536
X140.208Y-107.188
X140.208Y-108.267
X140.462Y-95.123
X140.589Y-101.981
X140.716Y-132.207
X140.716Y-134.214
X140.818Y-130.353
X140.843Y-98.171
X140.868Y-111.201
X141.097Y-105.029
X141.097Y-105.981
X141.097Y-106.934
X141.351Y-78.105
X141.351Y-78.994
X141.478Y-95.186
X141.529Y-109.931
X141.541Y-108.966
X141.605Y-73.025
X141.681Y-111.912
X142.113Y-132.715
X142.24Y-92.075
X142.494Y-126.492
X142.748Y-95.25
X142.875Y-97.727
X142.875Y-124.206
X143.002Y-75.946
X143.002Y-76.962
X143.256Y-121.856
X143.383Y-118.872
X144.018Y-75.946
X144.653Y-112.204
X144.78Y-115.697
X145.161Y-75.946
X145.669Y-115.57
X145.669Y-128.651
T2
X130.746Y-115.76
X131.953Y-117.284
T3
X99.314Y-65.151
X104.445Y-133.604
X112.395Y-88.646
X112.903Y-80.645
X116.078Y-87.503
X117.475Y-76.073
X120.015Y-87.249
X127.Y-81.661
X140.081Y-82.296
X141.986Y-134.112
X144.932Y-136.703
X144.97Y-83.185
T4
X100.33Y-96.52
X100.33Y-99.06
X100.33Y-101.6
X100.33Y-104.14
X100.33Y-106.68
X100.33Y-109.22
X100.33Y-111.76
X100.33Y-114.3
X100.33Y-119.38
X100.33Y-121.92
X100.33Y-124.46
X100.33Y-127.
X100.33Y-129.54
X100.33Y-132.08
X110.49Y-142.24
X113.03Y-142.24
X115.57Y-142.24
X118.11Y-142.24
X120.65Y-142.24
X123.19Y-142.24
X125.73Y-142.24
X128.27Y-142.24
X130.302Y-87.757
X130.81Y-142.24
X132.842Y-87.757
X133.35Y-142.24
X135.382Y-87.757
X135.89Y-142.24
X137.922Y-87.757
X138.43Y-142.24
X140.97Y-142.24
X146.05Y-86.36
X146.05Y-88.9
X146.05Y-91.44
X146.05Y-93.98
X146.05Y-96.52
X146.05Y-99.06
X146.05Y-101.6
X146.05Y-104.14
X146.05Y-106.68
X146.05Y-109.22
X148.59Y-87.376
X148.59Y-89.916
X148.59Y-92.456
X148.59Y-94.996
X148.59Y-97.536
X148.59Y-100.076
X148.59Y-102.616
X148.59Y-105.156
X148.59Y-107.696
X148.59Y-110.236
X148.59Y-114.3
X148.59Y-116.84
X148.59Y-119.38
X148.59Y-121.92
X148.59Y-124.46
X148.59Y-127.
X148.59Y-129.54
X148.59Y-132.08
T5
X131.445Y-82.042
X133.096Y-78.867
X135.509Y-78.867
X137.668Y-74.168
X137.668Y-78.486
X146.304Y-72.009
T6
X100.33Y-68.58
X100.33Y-135.89
X148.59Y-68.58
X148.59Y-135.89
T0
M30
