G04 #@! TF.FileFunction,Copper,L4,Bot,Signal*
%FSLAX46Y46*%
G04 Gerber Fmt 4.6, Leading zero omitted, Abs format (unit mm)*
G04 Created by KiCad (PCBNEW 4.0.5-e0-6337~49~ubuntu16.04.1) date Sat Feb 25 14:31:11 2017*
%MOMM*%
%LPD*%
G01*
G04 APERTURE LIST*
%ADD10C,0.100000*%
%ADD11R,1.700000X1.700000*%
%ADD12O,1.700000X1.700000*%
%ADD13C,4.100000*%
%ADD14C,0.600000*%
%ADD15C,1.016000*%
%ADD16C,2.032000*%
%ADD17C,0.508000*%
%ADD18C,1.270000*%
%ADD19C,0.635000*%
%ADD20C,0.177800*%
%ADD21C,0.304800*%
G04 APERTURE END LIST*
D10*
D11*
X100330000Y-96520000D03*
D12*
X100330000Y-99060000D03*
X100330000Y-101600000D03*
X100330000Y-104140000D03*
X100330000Y-106680000D03*
X100330000Y-109220000D03*
X100330000Y-111760000D03*
X100330000Y-114300000D03*
D11*
X100330000Y-119380000D03*
D12*
X100330000Y-121920000D03*
X100330000Y-124460000D03*
X100330000Y-127000000D03*
X100330000Y-129540000D03*
X100330000Y-132080000D03*
D11*
X148590000Y-114300000D03*
D12*
X148590000Y-116840000D03*
X148590000Y-119380000D03*
X148590000Y-121920000D03*
X148590000Y-124460000D03*
X148590000Y-127000000D03*
X148590000Y-129540000D03*
X148590000Y-132080000D03*
D11*
X148590000Y-87376000D03*
D12*
X148590000Y-89916000D03*
X148590000Y-92456000D03*
X148590000Y-94996000D03*
X148590000Y-97536000D03*
X148590000Y-100076000D03*
X148590000Y-102616000D03*
X148590000Y-105156000D03*
X148590000Y-107696000D03*
X148590000Y-110236000D03*
D11*
X146050000Y-86360000D03*
D12*
X146050000Y-88900000D03*
X146050000Y-91440000D03*
X146050000Y-93980000D03*
X146050000Y-96520000D03*
X146050000Y-99060000D03*
X146050000Y-101600000D03*
X146050000Y-104140000D03*
X146050000Y-106680000D03*
X146050000Y-109220000D03*
D11*
X110490000Y-142240000D03*
D12*
X113030000Y-142240000D03*
X115570000Y-142240000D03*
X118110000Y-142240000D03*
X120650000Y-142240000D03*
X123190000Y-142240000D03*
X125730000Y-142240000D03*
X128270000Y-142240000D03*
X130810000Y-142240000D03*
X133350000Y-142240000D03*
X135890000Y-142240000D03*
X138430000Y-142240000D03*
X140970000Y-142240000D03*
D11*
X130302000Y-87757000D03*
D12*
X132842000Y-87757000D03*
X135382000Y-87757000D03*
X137922000Y-87757000D03*
D13*
X100330000Y-68580000D03*
X148590000Y-68580000D03*
X148590000Y-135890000D03*
X100330000Y-135890000D03*
D14*
X142240000Y-92075000D03*
D15*
X144970500Y-83185000D03*
D16*
X131445000Y-82042000D03*
D14*
X120396000Y-85979000D03*
D15*
X116078000Y-87503000D03*
D14*
X104013000Y-88011000D03*
X112776000Y-83058000D03*
X109601000Y-72517000D03*
X101600000Y-72517000D03*
X99314000Y-72517000D03*
X108331000Y-87630000D03*
D15*
X127000000Y-81661000D03*
D16*
X146304000Y-72009000D03*
D14*
X121412000Y-110490000D03*
X136906000Y-92964000D03*
X135636000Y-114300000D03*
X145161000Y-75946000D03*
X144018000Y-75946000D03*
X143002000Y-75946000D03*
X143002000Y-76962000D03*
X104267000Y-91821000D03*
X137223500Y-105219500D03*
X138811000Y-100711000D03*
X106299000Y-102870000D03*
X107315000Y-99060000D03*
X105156000Y-117221000D03*
X109270800Y-100126800D03*
D15*
X141986000Y-134112000D03*
X144932400Y-136702800D03*
X104444800Y-133604000D03*
D14*
X109829600Y-91744800D03*
X113385600Y-111048800D03*
X109270800Y-95961200D03*
X105613200Y-90982800D03*
X125933200Y-119380000D03*
X127508000Y-110845600D03*
X110540800Y-105968800D03*
X130937000Y-119507000D03*
X128524000Y-130683000D03*
X127762000Y-89154000D03*
X122682000Y-130556000D03*
X135001000Y-130556000D03*
X113919000Y-128143000D03*
D16*
X137668000Y-78486000D03*
X137668000Y-74168000D03*
X133096000Y-78867000D03*
X135509000Y-78867000D03*
D15*
X120015000Y-87249000D03*
X117475000Y-76073000D03*
D14*
X116078000Y-84328000D03*
D15*
X99314000Y-65151000D03*
X112395000Y-88646000D03*
X112903000Y-80645000D03*
D14*
X110998000Y-103124000D03*
X136969500Y-104330500D03*
X138938000Y-98806000D03*
X136271000Y-122174000D03*
X106045000Y-133985000D03*
X110426500Y-109791500D03*
X133400800Y-121412000D03*
X135229600Y-112572800D03*
X114858800Y-112877600D03*
X129997200Y-109270800D03*
X112115600Y-105765600D03*
X123494800Y-110998000D03*
X131064000Y-132842000D03*
X114300000Y-119443500D03*
X128524000Y-119507000D03*
X124460000Y-119507000D03*
X133223000Y-119507000D03*
X112395000Y-95377000D03*
X115697000Y-89408000D03*
X127254000Y-131445000D03*
X129286000Y-72771000D03*
X111506000Y-97155000D03*
X138303000Y-93980000D03*
X141351000Y-78994000D03*
X141351000Y-78105000D03*
X137312400Y-94843600D03*
X141605000Y-73025000D03*
X110363000Y-90297000D03*
X111633000Y-105029000D03*
X110591600Y-97942400D03*
X142113000Y-132715000D03*
X141541500Y-108966000D03*
X108610400Y-134162800D03*
X128778000Y-92456000D03*
X115570000Y-108712000D03*
X128219200Y-108153200D03*
X109931200Y-134162800D03*
X126949200Y-108813600D03*
X127914400Y-92760800D03*
X115671600Y-109677200D03*
X111912400Y-134264400D03*
X126847600Y-92456000D03*
X115519200Y-110642400D03*
X126238000Y-109880400D03*
X106883200Y-134416800D03*
X115620800Y-107746800D03*
X125526800Y-108000800D03*
X125882400Y-92506800D03*
X139700000Y-134518400D03*
X139141200Y-110642400D03*
X140868400Y-111201200D03*
X140817600Y-130352800D03*
X140716000Y-132207000D03*
X141681200Y-111912400D03*
X140004800Y-110236000D03*
X140716000Y-134213600D03*
X139852400Y-130149600D03*
X141528800Y-109931200D03*
X118427500Y-97409000D03*
X117805200Y-119583200D03*
X117805200Y-120446800D03*
X117792500Y-97917000D03*
X117157500Y-98552000D03*
X116941600Y-120802400D03*
X115570000Y-119735600D03*
X116687600Y-99364800D03*
X114109500Y-127254000D03*
X115951000Y-100520500D03*
X115163600Y-99974400D03*
X115570000Y-128270000D03*
X113334800Y-115316000D03*
X113284000Y-120396000D03*
X115379500Y-120523000D03*
X116395500Y-128270000D03*
X117157500Y-128016000D03*
X116078000Y-121107200D03*
X112623600Y-115976400D03*
X112585500Y-121031000D03*
X111950500Y-121793000D03*
X116713000Y-121729500D03*
X117856000Y-127571500D03*
X111912400Y-116586000D03*
X111302800Y-117246400D03*
X117792500Y-126555500D03*
X117411500Y-122364500D03*
X111315500Y-122364500D03*
X123761500Y-125730000D03*
X125095000Y-114617500D03*
X120192800Y-122021600D03*
X119684800Y-131318000D03*
X120599200Y-121208800D03*
X120700800Y-131521200D03*
X125539500Y-117221000D03*
X125730000Y-110617000D03*
X121310400Y-120599200D03*
X121310400Y-132181600D03*
X126873000Y-119316500D03*
X126936500Y-113792000D03*
X126288800Y-120243600D03*
X129235200Y-110845600D03*
X121970800Y-119989600D03*
X121716800Y-132994400D03*
X123634500Y-128333500D03*
X125349000Y-128270000D03*
X129730500Y-114744500D03*
X125069600Y-132943600D03*
X127825500Y-127381000D03*
X129540000Y-116522500D03*
X128651000Y-127508000D03*
D17*
X130746500Y-115760500D03*
D14*
X130683000Y-116649500D03*
X129540000Y-127508000D03*
X131889500Y-115506500D03*
X131127500Y-126746000D03*
X137858500Y-108521500D03*
X137096500Y-127063500D03*
X132994400Y-127914400D03*
X132334000Y-134010400D03*
X138493500Y-107950000D03*
X137922000Y-127698500D03*
X135737600Y-134670800D03*
X136525000Y-128333500D03*
X137287000Y-107251500D03*
X118160800Y-125272800D03*
X115620800Y-131216400D03*
X135001000Y-117094000D03*
X133096000Y-105283000D03*
X132143500Y-104267000D03*
X133604000Y-113665000D03*
X118668800Y-124307600D03*
X116586000Y-131470400D03*
X131762500Y-123571000D03*
X131953000Y-103441500D03*
X129540000Y-93662500D03*
X119126000Y-123545600D03*
X117652800Y-131622800D03*
D17*
X131953000Y-117284500D03*
D14*
X129667000Y-92392500D03*
X119735600Y-122834400D03*
X118770400Y-131673600D03*
X132016500Y-116459000D03*
X124307600Y-117195600D03*
X124333000Y-93345000D03*
X123494800Y-116992400D03*
X123888500Y-105473500D03*
X121666000Y-92329000D03*
X122123200Y-119176800D03*
X121513600Y-114452400D03*
X121208800Y-119532400D03*
X119697500Y-102425500D03*
X119634000Y-119989600D03*
X118999000Y-101727000D03*
X119024400Y-120700800D03*
X131762500Y-100393500D03*
X132524500Y-125857000D03*
X127762000Y-94234000D03*
X122745500Y-128333500D03*
X120523000Y-106426000D03*
X120497600Y-120192800D03*
X122809000Y-127000000D03*
X123444000Y-106870500D03*
D15*
X140081000Y-82296000D03*
D14*
X141097000Y-105029000D03*
X144653000Y-112204500D03*
X133477000Y-99695000D03*
X136525000Y-116967000D03*
X143383000Y-118872000D03*
X141097000Y-106934000D03*
X142875000Y-124206000D03*
X140208000Y-107188000D03*
X142494000Y-126492000D03*
X140208000Y-108267500D03*
X144780000Y-115697000D03*
X145669000Y-115570000D03*
X145669000Y-128651000D03*
X143256000Y-121856500D03*
X141097000Y-105981500D03*
X140462000Y-95123000D03*
X141478000Y-95186500D03*
X140208000Y-97536000D03*
X130175000Y-97155000D03*
X142748000Y-95250000D03*
X140843000Y-98171000D03*
X142875000Y-97726500D03*
X131445000Y-96837500D03*
X131000500Y-95948500D03*
X130302000Y-98171000D03*
X140589000Y-101981000D03*
X139827000Y-102616000D03*
X118999000Y-81407000D03*
X125349000Y-82931000D03*
X120269000Y-81534000D03*
X124714000Y-81661000D03*
X121412000Y-82169000D03*
X127508000Y-82677000D03*
X115189000Y-93726000D03*
X112649000Y-78613000D03*
X115316000Y-83058000D03*
X116967000Y-94615000D03*
X113030000Y-81915000D03*
X113157000Y-91948000D03*
X114554000Y-84074000D03*
X115951000Y-94361000D03*
X106553000Y-72771000D03*
X112395000Y-73914000D03*
X111760000Y-93218000D03*
X101600000Y-89916000D03*
D18*
X135509000Y-78867000D02*
X137287000Y-78867000D01*
X137287000Y-78867000D02*
X137668000Y-78486000D01*
X137668000Y-74168000D02*
X137795000Y-74041000D01*
X137795000Y-74041000D02*
X137668000Y-74168000D01*
X135509000Y-78867000D02*
X133096000Y-78867000D01*
X135509000Y-78994000D02*
X135636000Y-78867000D01*
X135382000Y-78994000D02*
X135509000Y-78994000D01*
X135509000Y-78867000D02*
X135382000Y-78994000D01*
D19*
X111506000Y-87757000D02*
X112395000Y-88646000D01*
X111506000Y-82042000D02*
X111506000Y-87757000D01*
X112903000Y-80645000D02*
X111506000Y-82042000D01*
D20*
X128143000Y-84582000D02*
X128143000Y-86995000D01*
X128143000Y-84582000D02*
X128143000Y-73914000D01*
X128143000Y-73914000D02*
X129286000Y-72771000D01*
X111760000Y-97409000D02*
X111506000Y-97155000D01*
X116332000Y-97409000D02*
X111760000Y-97409000D01*
X117475000Y-96266000D02*
X116332000Y-97409000D01*
X119639102Y-96266000D02*
X117475000Y-96266000D01*
X120548398Y-95356704D02*
X119639102Y-96266000D01*
X120548398Y-91795602D02*
X120548398Y-95356704D01*
X121158000Y-91186000D02*
X120548398Y-91795602D01*
X125857000Y-91186000D02*
X121158000Y-91186000D01*
X126111000Y-90932000D02*
X125857000Y-91186000D01*
X126111000Y-89027000D02*
X126111000Y-90932000D01*
X128143000Y-86995000D02*
X126111000Y-89027000D01*
X138303000Y-93980000D02*
X138430000Y-93980000D01*
X141351000Y-83439000D02*
X141351000Y-78994000D01*
X140716000Y-84074000D02*
X141351000Y-83439000D01*
X140716000Y-91694000D02*
X140716000Y-84074000D01*
X138430000Y-93980000D02*
X140716000Y-91694000D01*
X137312400Y-94843600D02*
X137312400Y-93954600D01*
X140589000Y-78867000D02*
X141351000Y-78105000D01*
X140589000Y-79375000D02*
X140589000Y-78867000D01*
X140970000Y-79756000D02*
X140589000Y-79375000D01*
X140970000Y-83185000D02*
X140970000Y-79756000D01*
X140335000Y-83820000D02*
X140970000Y-83185000D01*
X140335000Y-90932000D02*
X140335000Y-83820000D01*
X137312400Y-93954600D02*
X140335000Y-90932000D01*
X126238000Y-91567000D02*
X138303000Y-91567000D01*
X140335000Y-74295000D02*
X141605000Y-73025000D01*
X140335000Y-78232000D02*
X140335000Y-74295000D01*
X116433600Y-97942400D02*
X110591600Y-97942400D01*
X117729000Y-96647000D02*
X116433600Y-97942400D01*
X119761000Y-96647000D02*
X117729000Y-96647000D01*
X120904000Y-95504000D02*
X119761000Y-96647000D01*
X120904000Y-92075000D02*
X120904000Y-95504000D01*
X121412000Y-91567000D02*
X120904000Y-92075000D01*
X126238000Y-91567000D02*
X121412000Y-91567000D01*
X140081000Y-78486000D02*
X140335000Y-78232000D01*
X140081000Y-80645000D02*
X140081000Y-78486000D01*
X139192000Y-81534000D02*
X140081000Y-80645000D01*
X139192000Y-82804000D02*
X139192000Y-81534000D01*
X139827000Y-83439000D02*
X139192000Y-82804000D01*
X139827000Y-90043000D02*
X139827000Y-83439000D01*
X138303000Y-91567000D02*
X139827000Y-90043000D01*
X110363000Y-90297000D02*
X110617000Y-90551000D01*
X110617000Y-90551000D02*
X110617000Y-97917000D01*
X110617000Y-97917000D02*
X110591600Y-97942400D01*
D21*
X100330000Y-101600000D02*
X102235000Y-101600000D01*
X110172500Y-101600000D02*
X110236000Y-101536500D01*
X102235000Y-101600000D02*
X110172500Y-101600000D01*
D20*
X110236000Y-103251000D02*
X110236000Y-101536500D01*
X110236000Y-101536500D02*
X110236000Y-99517200D01*
X110236000Y-99517200D02*
X110591600Y-99161600D01*
X110591600Y-99161600D02*
X110591600Y-97942400D01*
X110236000Y-103632000D02*
X110236000Y-103251000D01*
X111633000Y-105029000D02*
X110236000Y-103632000D01*
X141859000Y-112903000D02*
X141859000Y-112712500D01*
X142113000Y-132715000D02*
X141859000Y-132461000D01*
X141859000Y-132461000D02*
X141859000Y-112903000D01*
X142367000Y-109791500D02*
X141541500Y-108966000D01*
X142367000Y-112204500D02*
X142367000Y-109791500D01*
X141859000Y-112712500D02*
X142367000Y-112204500D01*
X114503200Y-109778800D02*
X114503200Y-111297698D01*
X108610400Y-134162800D02*
X109677200Y-133096000D01*
X109677200Y-133096000D02*
X109677200Y-116789200D01*
X114503200Y-109778800D02*
X115570000Y-108712000D01*
X128524000Y-92710000D02*
X128524000Y-107848400D01*
X128778000Y-92456000D02*
X128524000Y-92710000D01*
X128524000Y-107848400D02*
X128219200Y-108153200D01*
X109677200Y-116123698D02*
X109677200Y-116789200D01*
X114503200Y-111297698D02*
X109677200Y-116123698D01*
X114909600Y-110439200D02*
X114909600Y-111394196D01*
X109931200Y-134162800D02*
X110185200Y-133908800D01*
X110185200Y-133908800D02*
X110185200Y-116840000D01*
X115671600Y-109677200D02*
X114909600Y-110439200D01*
X110185200Y-116118596D02*
X110185200Y-116840000D01*
X114909600Y-111394196D02*
X110185200Y-116118596D01*
X126949200Y-108813600D02*
X127000000Y-108762800D01*
X127000000Y-108762800D02*
X127000000Y-93675200D01*
X127914400Y-92760800D02*
X127000000Y-93675200D01*
X115671600Y-109728000D02*
X115671600Y-109677200D01*
X115519200Y-110642400D02*
X115519200Y-111287494D01*
X111912400Y-134264400D02*
X112471200Y-133705600D01*
X112471200Y-133705600D02*
X112471200Y-124460000D01*
X112471200Y-124460000D02*
X110642400Y-122631200D01*
X110642400Y-122631200D02*
X110642400Y-116992400D01*
X126187200Y-108610400D02*
X126187200Y-109829600D01*
X126847600Y-92456000D02*
X126542800Y-92760800D01*
X126542800Y-92760800D02*
X126542800Y-108254800D01*
X126542800Y-108254800D02*
X126187200Y-108610400D01*
X126187200Y-109829600D02*
X126238000Y-109880400D01*
X110642400Y-116164294D02*
X110642400Y-116992400D01*
X115519200Y-111287494D02*
X110642400Y-116164294D01*
X114096800Y-109270800D02*
X114096800Y-111201200D01*
X106883200Y-134416800D02*
X109270800Y-132029200D01*
X109270800Y-132029200D02*
X109270800Y-116636798D01*
X114096800Y-109270800D02*
X115620800Y-107746800D01*
X126085600Y-107442000D02*
X125526800Y-108000800D01*
X126085600Y-92710000D02*
X126085600Y-107442000D01*
X125882400Y-92506800D02*
X126085600Y-92710000D01*
X109270800Y-116027200D02*
X109270800Y-116636798D01*
X114096800Y-111201200D02*
X109270800Y-116027200D01*
X138785600Y-133604000D02*
X139700000Y-134518400D01*
X138785600Y-129540000D02*
X138785600Y-133604000D01*
X139242800Y-129082800D02*
X138785600Y-129540000D01*
X139242800Y-110744000D02*
X139242800Y-129082800D01*
X139141200Y-110642400D02*
X139242800Y-110744000D01*
X140868400Y-111201200D02*
X140868400Y-117195600D01*
X140868400Y-117195600D02*
X140817600Y-117246400D01*
X140817600Y-117246400D02*
X140817600Y-130352800D01*
X141478000Y-131445000D02*
X141478000Y-112115600D01*
X141478000Y-112115600D02*
X141681200Y-111912400D01*
X140716000Y-132207000D02*
X141478000Y-131445000D01*
X139852400Y-110388400D02*
X140004800Y-110236000D01*
X139852400Y-129184400D02*
X139852400Y-110388400D01*
X139242800Y-129794000D02*
X139852400Y-129184400D01*
X139242800Y-132740400D02*
X139242800Y-129794000D01*
X140716000Y-134213600D02*
X139242800Y-132740400D01*
X140258800Y-129743200D02*
X139852400Y-130149600D01*
X140258800Y-110998000D02*
X140258800Y-129743200D01*
X140919200Y-110337600D02*
X140258800Y-110998000D01*
X141122400Y-110337600D02*
X140919200Y-110337600D01*
X141528800Y-109931200D02*
X141122400Y-110337600D01*
X117348000Y-117030500D02*
X117348000Y-119126000D01*
X117348000Y-117030500D02*
X118427500Y-115951000D01*
X118427500Y-115951000D02*
X118427500Y-97409000D01*
X117348000Y-119126000D02*
X117805200Y-119583200D01*
X116465350Y-117024150D02*
X116465350Y-119106950D01*
X116465350Y-119106950D02*
X117805200Y-120446800D01*
X117792500Y-115697000D02*
X117792500Y-97917000D01*
X116459000Y-117030500D02*
X116465350Y-117024150D01*
X116465350Y-117024150D02*
X117792500Y-115697000D01*
X115633500Y-117221000D02*
X115633500Y-117379752D01*
X117411500Y-98806000D02*
X117157500Y-98552000D01*
X117411500Y-115125500D02*
X117411500Y-98806000D01*
X115633500Y-116903500D02*
X117411500Y-115125500D01*
X115633500Y-116903500D02*
X115633500Y-117221000D01*
X116941600Y-120086098D02*
X116941600Y-120802400D01*
X116109748Y-119254246D02*
X116941600Y-120086098D01*
X116109748Y-117856000D02*
X116109748Y-119254246D01*
X115633500Y-117379752D02*
X116109748Y-117856000D01*
X117030500Y-114363500D02*
X117030500Y-99707700D01*
X114871500Y-117563900D02*
X115570000Y-118262400D01*
X115570000Y-118262400D02*
X115570000Y-119735600D01*
X114871500Y-116522500D02*
X114871500Y-117348000D01*
X114871500Y-116522500D02*
X117030500Y-114363500D01*
X114871500Y-117348000D02*
X114871500Y-117563900D01*
X117030500Y-99707700D02*
X116687600Y-99364800D01*
X116268500Y-101282500D02*
X116268500Y-100838000D01*
X114109500Y-127254000D02*
X114173000Y-127190500D01*
X114173000Y-127190500D02*
X114173000Y-120142000D01*
X114173000Y-120142000D02*
X113728500Y-119697500D01*
X113728500Y-119697500D02*
X113728500Y-116446296D01*
X113728500Y-116446296D02*
X116268500Y-113906296D01*
X116268500Y-113906296D02*
X116268500Y-101282500D01*
X116268500Y-100838000D02*
X115951000Y-100520500D01*
X115246150Y-99891850D02*
X116211350Y-99891850D01*
X115163600Y-99974400D02*
X115246150Y-99891850D01*
X116674898Y-100672898D02*
X116674898Y-100355398D01*
X115570000Y-128270000D02*
X114808000Y-127508000D01*
X114808000Y-127508000D02*
X114808000Y-119951500D01*
X114808000Y-119951500D02*
X114935000Y-119824500D01*
X114935000Y-119824500D02*
X114935000Y-118300500D01*
X114935000Y-118300500D02*
X114236500Y-117602000D01*
X114236500Y-117602000D02*
X114236500Y-116459000D01*
X114236500Y-116459000D02*
X116674898Y-114020602D01*
X116674898Y-114020602D02*
X116674898Y-100672898D01*
X116674898Y-100355398D02*
X116211350Y-99891850D01*
X116211350Y-99891850D02*
X116205000Y-99885500D01*
X113284000Y-115366800D02*
X113284000Y-120396000D01*
X113334800Y-115316000D02*
X113284000Y-115366800D01*
X113284000Y-120396000D02*
X113347500Y-120332500D01*
X115443000Y-120586500D02*
X115379500Y-120523000D01*
X115443000Y-127317500D02*
X115443000Y-120586500D01*
X116395500Y-128270000D02*
X115443000Y-127317500D01*
X116014500Y-126809500D02*
X116014500Y-126873000D01*
X117157500Y-128016000D02*
X116014500Y-126873000D01*
X116078000Y-121107200D02*
X116014500Y-121170700D01*
X116014500Y-121170700D02*
X116014500Y-126809500D01*
X112585500Y-116014500D02*
X112585500Y-121031000D01*
X112623600Y-115976400D02*
X112585500Y-116014500D01*
X112585500Y-121031000D02*
X112649000Y-120967500D01*
X116713000Y-121729500D02*
X116649500Y-121793000D01*
X116649500Y-121793000D02*
X116649500Y-126365000D01*
X116649500Y-126365000D02*
X117856000Y-127571500D01*
X111950500Y-119926100D02*
X111950500Y-121793000D01*
X111912400Y-119888000D02*
X111950500Y-119926100D01*
X111912400Y-116586000D02*
X111912400Y-119888000D01*
X111302800Y-117246400D02*
X111315500Y-117246400D01*
X111315500Y-117246400D02*
X111302800Y-117246400D01*
X111302800Y-117246400D02*
X111315500Y-117246400D01*
X117792500Y-126111000D02*
X117792500Y-126555500D01*
X117411500Y-125730000D02*
X117792500Y-126111000D01*
X117411500Y-122364500D02*
X117411500Y-125730000D01*
X111315500Y-117246400D02*
X111315500Y-122364500D01*
X123761500Y-119126000D02*
X123761500Y-125730000D01*
X124968000Y-117919500D02*
X123761500Y-119126000D01*
X124968000Y-114744500D02*
X124968000Y-117919500D01*
X125095000Y-114617500D02*
X124968000Y-114744500D01*
X120446800Y-122275600D02*
X120192800Y-122021600D01*
X120446800Y-130556000D02*
X120446800Y-122275600D01*
X119684800Y-131318000D02*
X120446800Y-130556000D01*
X120853200Y-121462800D02*
X120599200Y-121208800D01*
X120853200Y-131368800D02*
X120853200Y-121462800D01*
X120700800Y-131521200D02*
X120853200Y-131368800D01*
X125730000Y-116205000D02*
X125730000Y-117030500D01*
X125730000Y-117030500D02*
X125539500Y-117221000D01*
X125730000Y-116205000D02*
X125730000Y-110617000D01*
X121310400Y-132181600D02*
X121310400Y-120599200D01*
X126936500Y-113792000D02*
X126936500Y-113855500D01*
X126873000Y-117475000D02*
X126873000Y-119316500D01*
X126873000Y-116459000D02*
X126873000Y-117475000D01*
X127444500Y-115887500D02*
X126873000Y-116459000D01*
X127444500Y-114363500D02*
X127444500Y-115887500D01*
X126936500Y-113855500D02*
X127444500Y-114363500D01*
X126936500Y-113792000D02*
X127000000Y-113855500D01*
X127196850Y-119881650D02*
X127158750Y-119881650D01*
X126796800Y-120243600D02*
X126288800Y-120243600D01*
X127158750Y-119881650D02*
X126796800Y-120243600D01*
X128460500Y-113157000D02*
X128460500Y-113144300D01*
X127825500Y-113792000D02*
X128460500Y-113157000D01*
X127444500Y-117792500D02*
X127444500Y-117284500D01*
X127444500Y-117792500D02*
X127444500Y-119634000D01*
X127825500Y-116078000D02*
X127825500Y-113919000D01*
X127317500Y-116586000D02*
X127825500Y-116078000D01*
X127317500Y-117157500D02*
X127317500Y-116586000D01*
X127444500Y-117284500D02*
X127317500Y-117157500D01*
X127190500Y-119888000D02*
X127196850Y-119881650D01*
X127196850Y-119881650D02*
X127444500Y-119634000D01*
X127825500Y-113919000D02*
X127825500Y-113792000D01*
X129235200Y-112369600D02*
X129235200Y-110845600D01*
X128460500Y-113144300D02*
X129235200Y-112369600D01*
X121970800Y-132740400D02*
X121970800Y-119989600D01*
X121716800Y-132994400D02*
X121970800Y-132740400D01*
X123253500Y-132651500D02*
X123253500Y-128714500D01*
X123253500Y-128714500D02*
X123634500Y-128333500D01*
X127000000Y-127317500D02*
X126174500Y-128143000D01*
X126174500Y-128143000D02*
X125476000Y-128143000D01*
X125476000Y-128143000D02*
X125349000Y-128270000D01*
X129476500Y-124841000D02*
X127000000Y-127317500D01*
X129476500Y-121602500D02*
X129476500Y-124841000D01*
X127952500Y-120078500D02*
X129476500Y-121602500D01*
X127952500Y-118808500D02*
X127952500Y-120078500D01*
X128905000Y-117856000D02*
X127952500Y-118808500D01*
X128905000Y-116332000D02*
X128905000Y-117856000D01*
X129794000Y-115443000D02*
X128905000Y-116332000D01*
X129794000Y-114808000D02*
X129794000Y-115443000D01*
X129730500Y-114744500D02*
X129794000Y-114808000D01*
X123253500Y-132651500D02*
X123317000Y-132588000D01*
X126847600Y-128358900D02*
X127825500Y-127381000D01*
X126847600Y-130302000D02*
X126847600Y-128358900D01*
X126187200Y-130962400D02*
X126847600Y-130302000D01*
X126187200Y-131826000D02*
X126187200Y-130962400D01*
X125069600Y-132943600D02*
X126187200Y-131826000D01*
X129921000Y-125285500D02*
X127825500Y-127381000D01*
X129921000Y-121285000D02*
X129921000Y-125285500D01*
X129159000Y-120523000D02*
X129921000Y-121285000D01*
X129159000Y-118178602D02*
X129159000Y-120523000D01*
X129667000Y-117670602D02*
X129159000Y-118178602D01*
X129667000Y-116649500D02*
X129667000Y-117670602D01*
X129540000Y-116522500D02*
X129667000Y-116649500D01*
X129540000Y-118935500D02*
X129540000Y-120332500D01*
X129540000Y-120332500D02*
X130302000Y-121094500D01*
X130302000Y-121094500D02*
X130302000Y-125857000D01*
X130302000Y-125857000D02*
X128651000Y-127508000D01*
X129540000Y-118300500D02*
X129540000Y-118935500D01*
X130111500Y-117729000D02*
X129540000Y-118300500D01*
X130111500Y-116395500D02*
X130111500Y-117729000D01*
X130746500Y-115760500D02*
X130111500Y-116395500D01*
X130683000Y-116649500D02*
X130683000Y-117729000D01*
X130683000Y-117729000D02*
X129921000Y-118491000D01*
X129921000Y-118491000D02*
X129921000Y-118745000D01*
X130683000Y-126365000D02*
X129540000Y-127508000D01*
X130683000Y-120904000D02*
X130683000Y-126365000D01*
X129921000Y-120142000D02*
X130683000Y-120904000D01*
X129921000Y-118745000D02*
X129921000Y-120142000D01*
X131318000Y-117792500D02*
X130302000Y-118808500D01*
X131318000Y-116078000D02*
X131318000Y-117792500D01*
X131889500Y-115506500D02*
X131318000Y-116078000D01*
X130302000Y-118808500D02*
X130302000Y-119951500D01*
X130302000Y-119951500D02*
X131127500Y-120777000D01*
X131127500Y-120777000D02*
X131127500Y-126746000D01*
X137922000Y-126238000D02*
X137096500Y-127063500D01*
X137922000Y-108585000D02*
X137922000Y-126238000D01*
X137858500Y-108521500D02*
X137922000Y-108585000D01*
X137223500Y-126936500D02*
X137096500Y-127063500D01*
X132435600Y-129438400D02*
X132435600Y-128473200D01*
X132435600Y-128473200D02*
X132994400Y-127914400D01*
X132435600Y-128473200D02*
X132994400Y-127914400D01*
X132334000Y-134010400D02*
X132435600Y-133908800D01*
X132435600Y-133908800D02*
X132435600Y-129438400D01*
X138493500Y-127127000D02*
X138493500Y-107950000D01*
X137922000Y-127698500D02*
X138493500Y-127127000D01*
X135839200Y-129019300D02*
X136525000Y-128333500D01*
X135839200Y-134569200D02*
X135839200Y-129019300D01*
X135737600Y-134670800D02*
X135839200Y-134569200D01*
X136525000Y-128333500D02*
X136588500Y-128333500D01*
X136588500Y-128333500D02*
X136525000Y-128333500D01*
X136525000Y-128333500D02*
X136588500Y-128333500D01*
X136398000Y-127254000D02*
X136398000Y-126555500D01*
X137287000Y-107251500D02*
X137287000Y-125666500D01*
X137287000Y-125666500D02*
X136525000Y-126428500D01*
X136588500Y-128333500D02*
X136588500Y-127444500D01*
X136588500Y-127444500D02*
X136398000Y-127254000D01*
X136398000Y-126555500D02*
X136525000Y-126428500D01*
X118516400Y-125628400D02*
X118160800Y-125272800D01*
X118516400Y-129438400D02*
X118516400Y-125628400D01*
X117602000Y-130352800D02*
X118516400Y-129438400D01*
X116484400Y-130352800D02*
X117602000Y-130352800D01*
X115620800Y-131216400D02*
X116484400Y-130352800D01*
X133731000Y-112014000D02*
X133731000Y-109918500D01*
X133731000Y-112014000D02*
X134683500Y-112966500D01*
X134683500Y-112966500D02*
X134683500Y-116776500D01*
X134683500Y-116776500D02*
X135001000Y-117094000D01*
X133032500Y-109220000D02*
X133223000Y-109410500D01*
X133032500Y-105346500D02*
X133032500Y-109220000D01*
X133096000Y-105283000D02*
X133032500Y-105346500D01*
X133731000Y-109918500D02*
X133223000Y-109410500D01*
X132842000Y-112014000D02*
X132842000Y-112903000D01*
X131889500Y-104521000D02*
X131889500Y-105854500D01*
X132143500Y-104267000D02*
X131889500Y-104521000D01*
X132651500Y-111823500D02*
X132842000Y-112014000D01*
X132651500Y-111506000D02*
X132651500Y-111823500D01*
X131889500Y-110744000D02*
X132651500Y-111506000D01*
X131889500Y-105981500D02*
X131889500Y-110744000D01*
X131889500Y-105854500D02*
X131889500Y-105981500D01*
X132842000Y-112903000D02*
X133604000Y-113665000D01*
X118922800Y-124561600D02*
X118668800Y-124307600D01*
X118922800Y-129743200D02*
X118922800Y-124561600D01*
X117805200Y-130860800D02*
X118922800Y-129743200D01*
X117195600Y-130860800D02*
X117805200Y-130860800D01*
X116586000Y-131470400D02*
X117195600Y-130860800D01*
X131699000Y-123507500D02*
X131762500Y-123571000D01*
X132481296Y-112161296D02*
X131533898Y-111213898D01*
X131533898Y-111213898D02*
X131533898Y-105511602D01*
X133858000Y-117157500D02*
X131699000Y-119316500D01*
X133858000Y-114871500D02*
X133858000Y-117157500D01*
X132486398Y-113499898D02*
X133858000Y-114871500D01*
X132486398Y-112161296D02*
X132486398Y-113499898D01*
X132486398Y-112161296D02*
X132481296Y-112161296D01*
X131533898Y-103860602D02*
X131533898Y-105511602D01*
X131953000Y-103441500D02*
X131533898Y-103860602D01*
X131699000Y-119316500D02*
X131699000Y-123507500D01*
X119329200Y-123748800D02*
X119126000Y-123545600D01*
X119329200Y-129946400D02*
X119329200Y-123748800D01*
X117652800Y-131622800D02*
X119329200Y-129946400D01*
X131178296Y-111366296D02*
X131173194Y-111366296D01*
X132130796Y-112318796D02*
X131178296Y-111366296D01*
X133159500Y-117284500D02*
X131953000Y-117284500D01*
X133477000Y-116967000D02*
X133159500Y-117284500D01*
X133477000Y-115062000D02*
X133477000Y-116967000D01*
X132130796Y-113715796D02*
X133477000Y-115062000D01*
X132130796Y-112382296D02*
X132130796Y-113715796D01*
X132130796Y-112382296D02*
X132130796Y-112318796D01*
X129349500Y-109542602D02*
X129349500Y-93599000D01*
X131173194Y-111366296D02*
X129349500Y-109542602D01*
X128905000Y-109601000D02*
X128905000Y-93281500D01*
X131762500Y-112458500D02*
X131762500Y-112522000D01*
X131762500Y-112458500D02*
X130619500Y-111315500D01*
X130619500Y-111315500D02*
X128905000Y-109601000D01*
X129413000Y-92773500D02*
X128905000Y-93281500D01*
X129413000Y-92646500D02*
X129413000Y-92773500D01*
X129667000Y-92392500D02*
X129413000Y-92646500D01*
X119735600Y-130352800D02*
X119735600Y-122834400D01*
X118872000Y-131216400D02*
X119735600Y-130352800D01*
X118872000Y-131572000D02*
X118872000Y-131216400D01*
X118770400Y-131673600D02*
X118872000Y-131572000D01*
X131762500Y-113919000D02*
X131762500Y-113982500D01*
X131762500Y-112516898D02*
X131762500Y-112522000D01*
X131762500Y-112522000D02*
X131762500Y-113919000D01*
X132524500Y-116459000D02*
X132016500Y-116459000D01*
X132969000Y-116014500D02*
X132524500Y-116459000D01*
X132969000Y-115189000D02*
X132969000Y-116014500D01*
X131762500Y-113982500D02*
X132969000Y-115189000D01*
X124523500Y-94869000D02*
X124523500Y-93535500D01*
X124523500Y-116979700D02*
X124307600Y-117195600D01*
X124523500Y-116522500D02*
X124523500Y-94869000D01*
X124523500Y-116522500D02*
X124523500Y-116979700D01*
X124523500Y-93535500D02*
X124333000Y-93345000D01*
X124142500Y-115925600D02*
X124142500Y-116344700D01*
X124142500Y-116344700D02*
X123494800Y-116992400D01*
X124142500Y-105727500D02*
X123888500Y-105473500D01*
X124142500Y-115887500D02*
X124142500Y-115925600D01*
X124142500Y-115925600D02*
X124142500Y-115887500D01*
X124142500Y-115887500D02*
X124142500Y-105727500D01*
X122174000Y-117348000D02*
X122174000Y-119126000D01*
X122174000Y-116713000D02*
X122174000Y-92837000D01*
X122174000Y-92837000D02*
X121666000Y-92329000D01*
X122174000Y-116713000D02*
X122174000Y-117348000D01*
X122174000Y-119126000D02*
X122123200Y-119176800D01*
X121221500Y-117221000D02*
X121221500Y-119519700D01*
X121221500Y-117221000D02*
X121221500Y-114744500D01*
X121221500Y-114744500D02*
X121513600Y-114452400D01*
X121221500Y-119519700D02*
X121208800Y-119532400D01*
X119697500Y-117348000D02*
X119697500Y-119926100D01*
X119697500Y-116141500D02*
X119697500Y-102425500D01*
X119697500Y-116141500D02*
X119697500Y-117348000D01*
X119697500Y-119926100D02*
X119634000Y-119989600D01*
X118872000Y-117475000D02*
X118872000Y-120548400D01*
X118999000Y-117348000D02*
X118872000Y-117475000D01*
X118999000Y-116586000D02*
X118999000Y-101727000D01*
X118999000Y-116586000D02*
X118999000Y-117348000D01*
X118872000Y-120548400D02*
X119024400Y-120700800D01*
X132715000Y-104775000D02*
X132715000Y-102870000D01*
X132080000Y-119951500D02*
X132461000Y-120332500D01*
X132461000Y-123126500D02*
X132461000Y-120332500D01*
X134175500Y-113093500D02*
X134302500Y-113220500D01*
X133286500Y-110426500D02*
X133286500Y-112204500D01*
X133286500Y-112204500D02*
X134175500Y-113093500D01*
X132461000Y-109601000D02*
X132461000Y-105029000D01*
X132461000Y-105029000D02*
X132715000Y-104775000D01*
X132461000Y-109601000D02*
X133286500Y-110426500D01*
X134302500Y-117215898D02*
X132080000Y-119438398D01*
X134302500Y-113220500D02*
X134302500Y-117215898D01*
X132080000Y-119438398D02*
X132080000Y-119951500D01*
X131762500Y-101917500D02*
X131762500Y-100393500D01*
X132715000Y-102870000D02*
X131762500Y-101917500D01*
X132524500Y-123126500D02*
X132461000Y-123126500D01*
X132461000Y-123190000D02*
X132524500Y-123126500D01*
X132461000Y-125793500D02*
X132461000Y-123190000D01*
X132524500Y-125857000D02*
X132461000Y-125793500D01*
X132461000Y-123126500D02*
X132461000Y-124269500D01*
X127508000Y-109855000D02*
X127635000Y-109728000D01*
X127635000Y-109728000D02*
X127635000Y-94361000D01*
X127635000Y-94361000D02*
X127762000Y-94234000D01*
X126111000Y-111252000D02*
X127508000Y-109855000D01*
X126111000Y-111315500D02*
X126111000Y-111252000D01*
X126111000Y-111252000D02*
X126111000Y-115951000D01*
X126111000Y-115951000D02*
X126111000Y-116649500D01*
X123317000Y-127736600D02*
X124358400Y-126695200D01*
X124358400Y-126695200D02*
X124358400Y-120446800D01*
X125069600Y-119735600D02*
X125069600Y-119341900D01*
X125069600Y-119341900D02*
X125349000Y-119062500D01*
X123317000Y-127762000D02*
X122745500Y-128333500D01*
X123317000Y-127762000D02*
X123317000Y-127736600D01*
X124358400Y-120446800D02*
X125069600Y-119735600D01*
X126111000Y-118300500D02*
X125666500Y-118745000D01*
X125666500Y-118745000D02*
X125349000Y-119062500D01*
X126111000Y-116649500D02*
X126111000Y-118300500D01*
X120523000Y-117157500D02*
X120523000Y-120167400D01*
X120523000Y-116586000D02*
X120523000Y-117157500D01*
X120523000Y-116586000D02*
X120523000Y-106426000D01*
X120523000Y-120167400D02*
X120497600Y-120192800D01*
X122872500Y-119253000D02*
X122872500Y-113601500D01*
X122809000Y-127000000D02*
X122872500Y-126936500D01*
X122872500Y-126936500D02*
X122872500Y-125285500D01*
X123444000Y-109664500D02*
X123444000Y-106870500D01*
X122872500Y-125285500D02*
X122872500Y-119253000D01*
X123444000Y-110185200D02*
X123444000Y-109664500D01*
X122834400Y-110794800D02*
X123444000Y-110185200D01*
X122834400Y-113563400D02*
X122834400Y-110794800D01*
X122872500Y-113601500D02*
X122834400Y-113563400D01*
X144462500Y-108394500D02*
X141097000Y-105029000D01*
X144462500Y-112014000D02*
X144462500Y-108394500D01*
X144653000Y-112204500D02*
X144462500Y-112014000D01*
X133731000Y-99949000D02*
X134366000Y-99949000D01*
X133477000Y-99695000D02*
X133731000Y-99949000D01*
X134366000Y-110617000D02*
X135763000Y-112014000D01*
X134366000Y-99949000D02*
X134366000Y-110617000D01*
X136525000Y-112776000D02*
X136525000Y-116967000D01*
X135763000Y-112014000D02*
X136525000Y-112776000D01*
X143002000Y-113411000D02*
X143002000Y-113078194D01*
X143002000Y-113411000D02*
X143002000Y-118491000D01*
X143002000Y-118491000D02*
X143383000Y-118872000D01*
X141605000Y-106934000D02*
X141097000Y-106934000D01*
X143484602Y-108813602D02*
X141605000Y-106934000D01*
X143484602Y-112595592D02*
X143484602Y-108813602D01*
X143002000Y-113078194D02*
X143484602Y-112595592D01*
X142621000Y-113157000D02*
X142621000Y-112956296D01*
X142621000Y-113157000D02*
X142621000Y-123952000D01*
X142621000Y-123952000D02*
X142875000Y-124206000D01*
X140652500Y-107632500D02*
X140208000Y-107188000D01*
X141732000Y-107632500D02*
X140652500Y-107632500D01*
X143129000Y-109029500D02*
X141732000Y-107632500D01*
X143129000Y-112448296D02*
X143129000Y-109029500D01*
X142621000Y-112956296D02*
X143129000Y-112448296D01*
X142240000Y-113030000D02*
X142240000Y-112834398D01*
X142240000Y-113030000D02*
X142240000Y-126238000D01*
X142240000Y-126238000D02*
X142494000Y-126492000D01*
X141795500Y-108267500D02*
X140208000Y-108267500D01*
X142748000Y-109220000D02*
X141795500Y-108267500D01*
X142748000Y-112326398D02*
X142748000Y-109220000D01*
X142240000Y-112834398D02*
X142748000Y-112326398D01*
X144780000Y-115697000D02*
X144653000Y-115824000D01*
X144653000Y-115824000D02*
X144653000Y-129032000D01*
X144653000Y-129032000D02*
X145161000Y-129540000D01*
X148590000Y-129540000D02*
X145161000Y-129540000D01*
X145669000Y-115570000D02*
X145669000Y-128651000D01*
X144018000Y-112966500D02*
X144018000Y-108775500D01*
X144018000Y-112966500D02*
X144018000Y-121094500D01*
X144018000Y-121094500D02*
X143256000Y-121856500D01*
X141224000Y-105981500D02*
X141097000Y-105981500D01*
X144018000Y-108775500D02*
X141224000Y-105981500D01*
X140462000Y-95123000D02*
X140462000Y-94996000D01*
X144145000Y-86360000D02*
X146050000Y-86360000D01*
X141097000Y-89408000D02*
X144145000Y-86360000D01*
X141097000Y-94361000D02*
X141097000Y-89408000D01*
X140462000Y-94996000D02*
X141097000Y-94361000D01*
X141478000Y-89916000D02*
X141478000Y-89789000D01*
X141478000Y-90995500D02*
X141478000Y-89916000D01*
X141478000Y-95186500D02*
X141478000Y-90995500D01*
X142367000Y-88900000D02*
X146050000Y-88900000D01*
X141478000Y-89789000D02*
X142367000Y-88900000D01*
X130175000Y-97155000D02*
X130556000Y-97536000D01*
X130556000Y-97536000D02*
X132143500Y-97536000D01*
X132143500Y-97536000D02*
X140208000Y-97536000D01*
X144843500Y-95313500D02*
X146050000Y-96520000D01*
X142811500Y-95313500D02*
X144843500Y-95313500D01*
X142748000Y-95250000D02*
X142811500Y-95313500D01*
X145542000Y-96012000D02*
X146050000Y-96520000D01*
X139890500Y-96837500D02*
X140525500Y-96837500D01*
X140525500Y-96837500D02*
X141033500Y-97345500D01*
X141033500Y-97345500D02*
X141033500Y-97980500D01*
X141033500Y-97980500D02*
X140843000Y-98171000D01*
X131445000Y-96837500D02*
X139890500Y-96837500D01*
X144780000Y-97790000D02*
X146050000Y-99060000D01*
X142938500Y-97790000D02*
X144780000Y-97790000D01*
X142875000Y-97726500D02*
X142938500Y-97790000D01*
X131445000Y-96837500D02*
X131572000Y-96710500D01*
X142271750Y-97123250D02*
X142271750Y-99028250D01*
X144843500Y-101600000D02*
X146050000Y-101600000D01*
X142271750Y-99028250D02*
X144843500Y-101600000D01*
X141287500Y-96139000D02*
X142271750Y-97123250D01*
X131191000Y-96139000D02*
X141287500Y-96139000D01*
X131000500Y-95948500D02*
X131191000Y-96139000D01*
X140970000Y-99314000D02*
X144653000Y-102997000D01*
X130302000Y-98171000D02*
X132778500Y-98171000D01*
X139827000Y-98171000D02*
X140970000Y-99314000D01*
X138557000Y-98171000D02*
X139827000Y-98171000D01*
X132778500Y-98171000D02*
X138557000Y-98171000D01*
X144907000Y-102997000D02*
X146050000Y-104140000D01*
X144653000Y-102997000D02*
X144907000Y-102997000D01*
X140589000Y-101981000D02*
X145288000Y-106680000D01*
X145288000Y-106680000D02*
X146050000Y-106680000D01*
X143129000Y-105791000D02*
X146050000Y-108712000D01*
X143002000Y-105791000D02*
X143129000Y-105791000D01*
X139827000Y-102616000D02*
X143002000Y-105791000D01*
X146050000Y-108712000D02*
X146050000Y-109220000D01*
X120396000Y-82804000D02*
X118999000Y-81407000D01*
X125222000Y-82804000D02*
X120396000Y-82804000D01*
X125349000Y-82931000D02*
X125222000Y-82804000D01*
X124587000Y-81534000D02*
X120269000Y-81534000D01*
X124714000Y-81661000D02*
X124587000Y-81534000D01*
X127508000Y-82677000D02*
X126619000Y-82677000D01*
X121539000Y-82296000D02*
X121412000Y-82169000D01*
X126238000Y-82296000D02*
X121539000Y-82296000D01*
X126619000Y-82677000D02*
X126238000Y-82296000D01*
X127508000Y-82677000D02*
X127381000Y-82804000D01*
X113792000Y-83820000D02*
X114554000Y-83058000D01*
X115189000Y-93726000D02*
X113792000Y-92329000D01*
X113792000Y-92329000D02*
X113792000Y-83820000D01*
X114554000Y-80518000D02*
X112649000Y-78613000D01*
X114554000Y-83058000D02*
X114554000Y-80518000D01*
X115316000Y-84455000D02*
X115316000Y-83058000D01*
X114554000Y-85217000D02*
X115316000Y-84455000D01*
X114554000Y-91567000D02*
X114554000Y-85217000D01*
X116967000Y-93980000D02*
X114554000Y-91567000D01*
X116967000Y-94615000D02*
X116967000Y-93980000D01*
X113919000Y-82804000D02*
X113030000Y-81915000D01*
X113919000Y-83058000D02*
X113919000Y-82804000D01*
X113284000Y-83693000D02*
X113919000Y-83058000D01*
X113284000Y-91821000D02*
X113284000Y-83693000D01*
X113157000Y-91948000D02*
X113284000Y-91821000D01*
X114147602Y-84480398D02*
X114554000Y-84074000D01*
X114147602Y-91668602D02*
X114147602Y-84480398D01*
X115824000Y-93345000D02*
X114147602Y-91668602D01*
X115824000Y-94234000D02*
X115824000Y-93345000D01*
X115951000Y-94361000D02*
X115824000Y-94234000D01*
X107315000Y-73533000D02*
X106553000Y-72771000D01*
X112014000Y-73533000D02*
X107315000Y-73533000D01*
X112395000Y-73914000D02*
X112014000Y-73533000D01*
X111760000Y-90170000D02*
X111760000Y-93218000D01*
X110998000Y-89408000D02*
X111760000Y-90170000D01*
X102108000Y-89408000D02*
X110998000Y-89408000D01*
X101600000Y-89916000D02*
X102108000Y-89408000D01*
M02*
